<?xml version="1.0" encoding="iso-8859-1"?>
<!-- Generator: Adobe Illustrator 16.0.0, SVG Export Plug-In . SVG Version: 6.00 Build 0)  -->
<!DOCTYPE svg PUBLIC "-//W3C//DTD SVG 1.1//EN" "http://www.w3.org/Graphics/SVG/1.1/DTD/svg11.dtd">
<svg version="1.1" id="Capa_1" xmlns="http://www.w3.org/2000/svg" xmlns:xlink="http://www.w3.org/1999/xlink" x="0px" y="0px"
	 width="30px" height="30px" viewBox="0 0 420.7 420.701" style="enable-background:new 0 0 420.7 420.701;"
	 xml:space="preserve">
<g>
	<g>
		<path d="M76.5,19.15C34.4,19.15,0,53.55,0,95.65c0,42.1,34.4,76.5,76.5,76.5s76.5-34.4,76.5-76.5
			C153,53.55,118.6,19.15,76.5,19.15z M76.5,133.85c-21,0-38.2-17.2-38.2-38.2s17.2-38.2,38.2-38.2s38.2,17.2,38.2,38.2
			S97.6,133.85,76.5,133.85z"/>
		<path d="M401.6,286.85c-11.5,0-19.1,7.6-19.1,19.1c0,32.5-24.9,57.4-57.4,57.4H286.9c-32.5,0-57.4-24.9-57.4-57.4v-191.2
			c0-32.5,24.9-57.4,57.4-57.4H325.1c32.5,0,57.4,24.9,57.4,57.4c0,11.5,7.6,19.1,19.1,19.1s19.1-7.6,19.1-19.1
			c0-53.5-42.1-95.6-95.6-95.6H286.9c-53.5,0-95.601,42.1-95.601,95.6v191.2c0,53.5,42.101,95.601,95.601,95.601H325.1
			c53.5,0,95.6-42.101,95.6-95.601C420.801,294.45,413.1,286.85,401.6,286.85z"/>
	</g>
</g>
<g>
</g>
<g>
</g>
<g>
</g>
<g>
</g>
<g>
</g>
<g>
</g>
<g>
</g>
<g>
</g>
<g>
</g>
<g>
</g>
<g>
</g>
<g>
</g>
<g>
</g>
<g>
</g>
<g>
</g>
</svg>
